# xmcd
# 
# Track frame offsets:
#     150
#     600
#     19737
#     39063
#     60112
#     78658
#     99185
#     122151
#     153760
#     171879
#     192641
#     217848
#     246503
#     271737
#     292377
# 
# Disc length: 3939
# 
# Revision: 0
# Processed by: cddbd v1.5.2PL0 Copyright (c) Steve Scherf et al.
# Submitted via: fre:ac v1.0.17
# 
DISCID=c10f610f
DTITLE=Tony Joe White - One Hot July
DYEAR=1998
DGENRE=Blues
TTITLE0=Crack the window baby
TTITLE1=Gumbo John
TTITLE2=Accress from midnight
TTITLE3=Goin' gone rockin'
TTITLE4=Cold fingers
TTITLE5=I want my fleetwood back
TTITLE6=Believe I've lost my way
TTITLE7=Don't over do it
TTITLE8=The delta singer
TTITLE9=Ol' black crow
TTITLE10=One hot july
TTITLE11=Conjure woman
TTITLE12=Selena
TTITLE13=One july (String ensemble) 
TTITLE14=Unknown
EXTD=
EXTT0=
EXTT1=
EXTT2=
EXTT3=
EXTT4=
EXTT5=
EXTT6=
EXTT7=
EXTT8=
EXTT9=
EXTT10=
EXTT11=
EXTT12=
EXTT13=
EXTT14=
PLAYORDER=
